<mxfile host="Electron" agent="Mozilla/5.0 (Windows NT 10.0; Win64; x64) AppleWebKit/537.36 (KHTML, like Gecko) draw.io/26.2.2 Chrome/134.0.6998.178 Electron/35.1.2 Safari/537.36" version="26.2.2" pages="2">
  <diagram name="multi az" id="0uhkMBvUvLGdFTbc7nqW">
    <mxGraphModel dx="1714" dy="990" grid="1" gridSize="10" guides="1" tooltips="1" connect="1" arrows="1" fold="1" page="1" pageScale="1" pageWidth="827" pageHeight="1169" math="0" shadow="0">
      <root>
        <mxCell id="0" />
        <mxCell id="1" value="vpc" parent="0" />
        <mxCell id="k_eUefpiebkTwtaE3vUQ-1" value="docker network" style="points=[[0,0],[0.25,0],[0.5,0],[0.75,0],[1,0],[1,0.25],[1,0.5],[1,0.75],[1,1],[0.75,1],[0.5,1],[0.25,1],[0,1],[0,0.75],[0,0.5],[0,0.25]];outlineConnect=0;gradientColor=none;html=1;whiteSpace=wrap;fontSize=12;fontStyle=0;container=0;pointerEvents=0;collapsible=0;recursiveResize=0;shape=mxgraph.aws4.group;grIcon=mxgraph.aws4.group_aws_cloud_alt;strokeColor=#232F3E;fillColor=none;verticalAlign=top;align=left;spacingLeft=30;fontColor=#232F3E;dashed=0;" vertex="1" parent="1">
          <mxGeometry x="80" y="40" width="920" height="480" as="geometry" />
        </mxCell>
        <mxCell id="5th_WxcfTJwYVpLpzP10-24" value="docker network" style="points=[[0,0],[0.25,0],[0.5,0],[0.75,0],[1,0],[1,0.25],[1,0.5],[1,0.75],[1,1],[0.75,1],[0.5,1],[0.25,1],[0,1],[0,0.75],[0,0.5],[0,0.25]];outlineConnect=0;gradientColor=none;html=1;whiteSpace=wrap;fontSize=12;fontStyle=0;container=0;pointerEvents=0;collapsible=0;recursiveResize=0;shape=mxgraph.aws4.group;grIcon=mxgraph.aws4.group_aws_cloud_alt;strokeColor=#232F3E;fillColor=none;verticalAlign=top;align=left;spacingLeft=30;fontColor=#232F3E;dashed=0;" vertex="1" parent="1">
          <mxGeometry x="80" y="680" width="920" height="480" as="geometry" />
        </mxCell>
        <mxCell id="k_eUefpiebkTwtaE3vUQ-2" value="availability zone" style="" parent="0" />
        <mxCell id="H8W7SH40-4y4g_hO0Bt0-7" value="redis_cache_nw_c&lt;div&gt;172.19.0.0/16&lt;/div&gt;" style="fillColor=none;strokeColor=#147EBA;dashed=1;verticalAlign=top;fontStyle=0;fontColor=#147EBA;whiteSpace=wrap;html=1;" vertex="1" parent="k_eUefpiebkTwtaE3vUQ-2">
          <mxGeometry x="760" y="80" width="200" height="400" as="geometry" />
        </mxCell>
        <mxCell id="H8W7SH40-4y4g_hO0Bt0-4" value="redis_cache_nw_b&lt;div&gt;172.18.0.0/16&lt;/div&gt;" style="fillColor=none;strokeColor=#147EBA;dashed=1;verticalAlign=top;fontStyle=0;fontColor=#147EBA;whiteSpace=wrap;html=1;" vertex="1" parent="k_eUefpiebkTwtaE3vUQ-2">
          <mxGeometry x="440" y="80" width="200" height="400" as="geometry" />
        </mxCell>
        <mxCell id="k_eUefpiebkTwtaE3vUQ-9" value="redis_cache_nw_a&lt;div&gt;172.23.0.0/16&lt;/div&gt;" style="fillColor=none;strokeColor=#147EBA;dashed=1;verticalAlign=top;fontStyle=0;fontColor=#147EBA;whiteSpace=wrap;html=1;" vertex="1" parent="k_eUefpiebkTwtaE3vUQ-2">
          <mxGeometry x="120" y="80" width="200" height="400" as="geometry" />
        </mxCell>
        <mxCell id="5th_WxcfTJwYVpLpzP10-25" value="redis_cache_nw_c&lt;div&gt;172.19.0.0/16&lt;/div&gt;" style="fillColor=none;strokeColor=#147EBA;dashed=1;verticalAlign=top;fontStyle=0;fontColor=#147EBA;whiteSpace=wrap;html=1;" vertex="1" parent="k_eUefpiebkTwtaE3vUQ-2">
          <mxGeometry x="760" y="720" width="200" height="400" as="geometry" />
        </mxCell>
        <mxCell id="5th_WxcfTJwYVpLpzP10-26" value="redis_cache_nw_b&lt;div&gt;172.18.0.0/16&lt;/div&gt;" style="fillColor=none;strokeColor=#147EBA;dashed=1;verticalAlign=top;fontStyle=0;fontColor=#147EBA;whiteSpace=wrap;html=1;" vertex="1" parent="k_eUefpiebkTwtaE3vUQ-2">
          <mxGeometry x="440" y="720" width="200" height="400" as="geometry" />
        </mxCell>
        <mxCell id="5th_WxcfTJwYVpLpzP10-27" value="redis_cache_nw_a&lt;div&gt;172.23.0.0/16&lt;/div&gt;" style="fillColor=none;strokeColor=#147EBA;dashed=1;verticalAlign=top;fontStyle=0;fontColor=#147EBA;whiteSpace=wrap;html=1;" vertex="1" parent="k_eUefpiebkTwtaE3vUQ-2">
          <mxGeometry x="120" y="720" width="200" height="400" as="geometry" />
        </mxCell>
        <mxCell id="k_eUefpiebkTwtaE3vUQ-3" value="subnet" parent="0" />
        <mxCell id="k_eUefpiebkTwtaE3vUQ-8" value="Private subnet" style="points=[[0,0],[0.25,0],[0.5,0],[0.75,0],[1,0],[1,0.25],[1,0.5],[1,0.75],[1,1],[0.75,1],[0.5,1],[0.25,1],[0,1],[0,0.75],[0,0.5],[0,0.25]];outlineConnect=0;gradientColor=none;html=1;whiteSpace=wrap;fontSize=12;fontStyle=0;container=1;pointerEvents=0;collapsible=0;recursiveResize=0;shape=mxgraph.aws4.group;grIcon=mxgraph.aws4.group_security_group;grStroke=0;strokeColor=#00A4A6;fillColor=#E6F6F7;verticalAlign=top;align=left;spacingLeft=30;fontColor=#147EBA;dashed=0;" vertex="1" parent="k_eUefpiebkTwtaE3vUQ-3">
          <mxGeometry x="160" y="320" width="120" height="120" as="geometry" />
        </mxCell>
        <mxCell id="H8W7SH40-4y4g_hO0Bt0-22" value="node-4" style="outlineConnect=0;dashed=0;verticalLabelPosition=bottom;verticalAlign=top;align=center;html=1;shape=mxgraph.aws3.redis;fillColor=#2E73B8;gradientColor=none;" vertex="1" parent="k_eUefpiebkTwtaE3vUQ-8">
          <mxGeometry x="40" y="40" width="40" height="40" as="geometry" />
        </mxCell>
        <mxCell id="H8W7SH40-4y4g_hO0Bt0-8" value="Private subnet" style="points=[[0,0],[0.25,0],[0.5,0],[0.75,0],[1,0],[1,0.25],[1,0.5],[1,0.75],[1,1],[0.75,1],[0.5,1],[0.25,1],[0,1],[0,0.75],[0,0.5],[0,0.25]];outlineConnect=0;gradientColor=none;html=1;whiteSpace=wrap;fontSize=12;fontStyle=0;container=1;pointerEvents=0;collapsible=0;recursiveResize=0;shape=mxgraph.aws4.group;grIcon=mxgraph.aws4.group_security_group;grStroke=0;strokeColor=#00A4A6;fillColor=#E6F6F7;verticalAlign=top;align=left;spacingLeft=30;fontColor=#147EBA;dashed=0;" vertex="1" parent="k_eUefpiebkTwtaE3vUQ-3">
          <mxGeometry x="160" y="120" width="120" height="120" as="geometry" />
        </mxCell>
        <mxCell id="H8W7SH40-4y4g_hO0Bt0-21" value="node-1" style="outlineConnect=0;dashed=0;verticalLabelPosition=bottom;verticalAlign=top;align=center;html=1;shape=mxgraph.aws3.redis;fillColor=#2E73B8;gradientColor=none;" vertex="1" parent="H8W7SH40-4y4g_hO0Bt0-8">
          <mxGeometry x="40" y="40" width="40" height="40" as="geometry" />
        </mxCell>
        <mxCell id="H8W7SH40-4y4g_hO0Bt0-9" value="Private subnet" style="points=[[0,0],[0.25,0],[0.5,0],[0.75,0],[1,0],[1,0.25],[1,0.5],[1,0.75],[1,1],[0.75,1],[0.5,1],[0.25,1],[0,1],[0,0.75],[0,0.5],[0,0.25]];outlineConnect=0;gradientColor=none;html=1;whiteSpace=wrap;fontSize=12;fontStyle=0;container=1;pointerEvents=0;collapsible=0;recursiveResize=0;shape=mxgraph.aws4.group;grIcon=mxgraph.aws4.group_security_group;grStroke=0;strokeColor=#00A4A6;fillColor=#E6F6F7;verticalAlign=top;align=left;spacingLeft=30;fontColor=#147EBA;dashed=0;" vertex="1" parent="k_eUefpiebkTwtaE3vUQ-3">
          <mxGeometry x="480" y="120" width="120" height="120" as="geometry" />
        </mxCell>
        <mxCell id="H8W7SH40-4y4g_hO0Bt0-26" value="node-2" style="outlineConnect=0;dashed=0;verticalLabelPosition=bottom;verticalAlign=top;align=center;html=1;shape=mxgraph.aws3.redis;fillColor=#2E73B8;gradientColor=none;" vertex="1" parent="H8W7SH40-4y4g_hO0Bt0-9">
          <mxGeometry x="40" y="40" width="40" height="40" as="geometry" />
        </mxCell>
        <mxCell id="H8W7SH40-4y4g_hO0Bt0-10" value="Private subnet" style="points=[[0,0],[0.25,0],[0.5,0],[0.75,0],[1,0],[1,0.25],[1,0.5],[1,0.75],[1,1],[0.75,1],[0.5,1],[0.25,1],[0,1],[0,0.75],[0,0.5],[0,0.25]];outlineConnect=0;gradientColor=none;html=1;whiteSpace=wrap;fontSize=12;fontStyle=0;container=1;pointerEvents=0;collapsible=0;recursiveResize=0;shape=mxgraph.aws4.group;grIcon=mxgraph.aws4.group_security_group;grStroke=0;strokeColor=#00A4A6;fillColor=#E6F6F7;verticalAlign=top;align=left;spacingLeft=30;fontColor=#147EBA;dashed=0;" vertex="1" parent="k_eUefpiebkTwtaE3vUQ-3">
          <mxGeometry x="480" y="320" width="120" height="120" as="geometry" />
        </mxCell>
        <mxCell id="H8W7SH40-4y4g_hO0Bt0-25" value="node-5" style="outlineConnect=0;dashed=0;verticalLabelPosition=bottom;verticalAlign=top;align=center;html=1;shape=mxgraph.aws3.redis;fillColor=#2E73B8;gradientColor=none;" vertex="1" parent="H8W7SH40-4y4g_hO0Bt0-10">
          <mxGeometry x="40" y="40" width="40" height="40" as="geometry" />
        </mxCell>
        <mxCell id="H8W7SH40-4y4g_hO0Bt0-11" value="Private subnet" style="points=[[0,0],[0.25,0],[0.5,0],[0.75,0],[1,0],[1,0.25],[1,0.5],[1,0.75],[1,1],[0.75,1],[0.5,1],[0.25,1],[0,1],[0,0.75],[0,0.5],[0,0.25]];outlineConnect=0;gradientColor=none;html=1;whiteSpace=wrap;fontSize=12;fontStyle=0;container=1;pointerEvents=0;collapsible=0;recursiveResize=0;shape=mxgraph.aws4.group;grIcon=mxgraph.aws4.group_security_group;grStroke=0;strokeColor=#00A4A6;fillColor=#E6F6F7;verticalAlign=top;align=left;spacingLeft=30;fontColor=#147EBA;dashed=0;" vertex="1" parent="k_eUefpiebkTwtaE3vUQ-3">
          <mxGeometry x="800" y="120" width="120" height="120" as="geometry" />
        </mxCell>
        <mxCell id="H8W7SH40-4y4g_hO0Bt0-12" value="Private subnet" style="points=[[0,0],[0.25,0],[0.5,0],[0.75,0],[1,0],[1,0.25],[1,0.5],[1,0.75],[1,1],[0.75,1],[0.5,1],[0.25,1],[0,1],[0,0.75],[0,0.5],[0,0.25]];outlineConnect=0;gradientColor=none;html=1;whiteSpace=wrap;fontSize=12;fontStyle=0;container=1;pointerEvents=0;collapsible=0;recursiveResize=0;shape=mxgraph.aws4.group;grIcon=mxgraph.aws4.group_security_group;grStroke=0;strokeColor=#00A4A6;fillColor=#E6F6F7;verticalAlign=top;align=left;spacingLeft=30;fontColor=#147EBA;dashed=0;" vertex="1" parent="k_eUefpiebkTwtaE3vUQ-3">
          <mxGeometry x="800" y="320" width="120" height="120" as="geometry" />
        </mxCell>
        <mxCell id="H8W7SH40-4y4g_hO0Bt0-28" value="node-6" style="outlineConnect=0;dashed=0;verticalLabelPosition=bottom;verticalAlign=top;align=center;html=1;shape=mxgraph.aws3.redis;fillColor=#2E73B8;gradientColor=none;" vertex="1" parent="H8W7SH40-4y4g_hO0Bt0-12">
          <mxGeometry x="40" y="40" width="40" height="40" as="geometry" />
        </mxCell>
        <mxCell id="H8W7SH40-4y4g_hO0Bt0-27" value="node-3" style="outlineConnect=0;dashed=0;verticalLabelPosition=bottom;verticalAlign=top;align=center;html=1;shape=mxgraph.aws3.redis;fillColor=#2E73B8;gradientColor=none;" vertex="1" parent="k_eUefpiebkTwtaE3vUQ-3">
          <mxGeometry x="840" y="160" width="40" height="40" as="geometry" />
        </mxCell>
        <mxCell id="H8W7SH40-4y4g_hO0Bt0-29" value="multi az replication" style="edgeStyle=orthogonalEdgeStyle;rounded=0;orthogonalLoop=1;jettySize=auto;html=1;startArrow=classic;startFill=1;" edge="1" parent="k_eUefpiebkTwtaE3vUQ-3" source="H8W7SH40-4y4g_hO0Bt0-21" target="H8W7SH40-4y4g_hO0Bt0-26">
          <mxGeometry relative="1" as="geometry">
            <mxPoint as="offset" />
          </mxGeometry>
        </mxCell>
        <mxCell id="H8W7SH40-4y4g_hO0Bt0-30" value="multi az replication" style="edgeStyle=orthogonalEdgeStyle;rounded=0;orthogonalLoop=1;jettySize=auto;html=1;startArrow=classic;startFill=1;entryX=0;entryY=0.5;entryDx=0;entryDy=0;entryPerimeter=0;" edge="1" parent="k_eUefpiebkTwtaE3vUQ-3" source="H8W7SH40-4y4g_hO0Bt0-26" target="H8W7SH40-4y4g_hO0Bt0-27">
          <mxGeometry relative="1" as="geometry">
            <mxPoint x="580" y="180" as="sourcePoint" />
            <mxPoint x="550" y="190" as="targetPoint" />
          </mxGeometry>
        </mxCell>
        <mxCell id="H8W7SH40-4y4g_hO0Bt0-31" value="cluster" style="edgeStyle=orthogonalEdgeStyle;rounded=0;orthogonalLoop=1;jettySize=auto;html=1;exitX=0.5;exitY=1;exitDx=0;exitDy=0;exitPerimeter=0;entryX=0.5;entryY=0;entryDx=0;entryDy=0;entryPerimeter=0;startArrow=classic;startFill=1;" edge="1" parent="k_eUefpiebkTwtaE3vUQ-3" source="H8W7SH40-4y4g_hO0Bt0-21" target="H8W7SH40-4y4g_hO0Bt0-22">
          <mxGeometry relative="1" as="geometry" />
        </mxCell>
        <mxCell id="H8W7SH40-4y4g_hO0Bt0-32" value="cluster" style="edgeStyle=orthogonalEdgeStyle;rounded=0;orthogonalLoop=1;jettySize=auto;html=1;exitX=0.5;exitY=1;exitDx=0;exitDy=0;exitPerimeter=0;startArrow=classic;startFill=1;" edge="1" parent="k_eUefpiebkTwtaE3vUQ-3" source="H8W7SH40-4y4g_hO0Bt0-26" target="H8W7SH40-4y4g_hO0Bt0-25">
          <mxGeometry relative="1" as="geometry">
            <mxPoint x="250" y="210" as="sourcePoint" />
            <mxPoint x="250" y="450" as="targetPoint" />
          </mxGeometry>
        </mxCell>
        <mxCell id="H8W7SH40-4y4g_hO0Bt0-33" value="cluster" style="edgeStyle=orthogonalEdgeStyle;rounded=0;orthogonalLoop=1;jettySize=auto;html=1;exitX=0.5;exitY=1;exitDx=0;exitDy=0;exitPerimeter=0;startArrow=classic;startFill=1;" edge="1" parent="k_eUefpiebkTwtaE3vUQ-3" source="H8W7SH40-4y4g_hO0Bt0-27" target="H8W7SH40-4y4g_hO0Bt0-28">
          <mxGeometry relative="1" as="geometry">
            <mxPoint x="570" y="210" as="sourcePoint" />
            <mxPoint x="570" y="450" as="targetPoint" />
          </mxGeometry>
        </mxCell>
        <mxCell id="q9-8kgH7sWqRUF2jgno--2" value="&lt;div&gt;異なるNWのRedisがデータを共有する&lt;span style=&quot;background-color: transparent; color: light-dark(rgb(0, 0, 0), rgb(255, 255, 255));&quot;&gt;Multi AZ ReplicationはRedisの機能ではない。&lt;/span&gt;&lt;/div&gt;&lt;div&gt;&lt;span style=&quot;background-color: transparent; color: light-dark(rgb(0, 0, 0), rgb(255, 255, 255));&quot;&gt;AWSの監視エージェント＋コントロールプレーンで実現&lt;/span&gt;&lt;/div&gt;" style="shape=callout;whiteSpace=wrap;html=1;perimeter=calloutPerimeter;" vertex="1" parent="k_eUefpiebkTwtaE3vUQ-3">
          <mxGeometry x="290" y="50" width="180" height="120" as="geometry" />
        </mxCell>
        <mxCell id="q9-8kgH7sWqRUF2jgno--3" value="同一NW内の分散管理はRedisの機能" style="shape=callout;whiteSpace=wrap;html=1;perimeter=calloutPerimeter;direction=south;position2=0.83;" vertex="1" parent="k_eUefpiebkTwtaE3vUQ-3">
          <mxGeometry x="240" y="250" width="140" height="60" as="geometry" />
        </mxCell>
        <mxCell id="5th_WxcfTJwYVpLpzP10-28" value="Private subnet" style="points=[[0,0],[0.25,0],[0.5,0],[0.75,0],[1,0],[1,0.25],[1,0.5],[1,0.75],[1,1],[0.75,1],[0.5,1],[0.25,1],[0,1],[0,0.75],[0,0.5],[0,0.25]];outlineConnect=0;gradientColor=none;html=1;whiteSpace=wrap;fontSize=12;fontStyle=0;container=1;pointerEvents=0;collapsible=0;recursiveResize=0;shape=mxgraph.aws4.group;grIcon=mxgraph.aws4.group_security_group;grStroke=0;strokeColor=#00A4A6;fillColor=#E6F6F7;verticalAlign=top;align=left;spacingLeft=30;fontColor=#147EBA;dashed=0;" vertex="1" parent="k_eUefpiebkTwtaE3vUQ-3">
          <mxGeometry x="160" y="960" width="120" height="120" as="geometry" />
        </mxCell>
        <mxCell id="5th_WxcfTJwYVpLpzP10-29" value="node-4" style="outlineConnect=0;dashed=0;verticalLabelPosition=bottom;verticalAlign=top;align=center;html=1;shape=mxgraph.aws3.redis;fillColor=#2E73B8;gradientColor=none;" vertex="1" parent="5th_WxcfTJwYVpLpzP10-28">
          <mxGeometry x="40" y="40" width="40" height="40" as="geometry" />
        </mxCell>
        <mxCell id="5th_WxcfTJwYVpLpzP10-30" value="Private subnet" style="points=[[0,0],[0.25,0],[0.5,0],[0.75,0],[1,0],[1,0.25],[1,0.5],[1,0.75],[1,1],[0.75,1],[0.5,1],[0.25,1],[0,1],[0,0.75],[0,0.5],[0,0.25]];outlineConnect=0;gradientColor=none;html=1;whiteSpace=wrap;fontSize=12;fontStyle=0;container=1;pointerEvents=0;collapsible=0;recursiveResize=0;shape=mxgraph.aws4.group;grIcon=mxgraph.aws4.group_security_group;grStroke=0;strokeColor=#00A4A6;fillColor=#E6F6F7;verticalAlign=top;align=left;spacingLeft=30;fontColor=#147EBA;dashed=0;" vertex="1" parent="k_eUefpiebkTwtaE3vUQ-3">
          <mxGeometry x="160" y="760" width="120" height="120" as="geometry" />
        </mxCell>
        <mxCell id="5th_WxcfTJwYVpLpzP10-31" value="node-1" style="outlineConnect=0;dashed=0;verticalLabelPosition=bottom;verticalAlign=top;align=center;html=1;shape=mxgraph.aws3.redis;fillColor=#2E73B8;gradientColor=none;" vertex="1" parent="5th_WxcfTJwYVpLpzP10-30">
          <mxGeometry x="40" y="40" width="40" height="40" as="geometry" />
        </mxCell>
        <mxCell id="5th_WxcfTJwYVpLpzP10-32" value="Private subnet" style="points=[[0,0],[0.25,0],[0.5,0],[0.75,0],[1,0],[1,0.25],[1,0.5],[1,0.75],[1,1],[0.75,1],[0.5,1],[0.25,1],[0,1],[0,0.75],[0,0.5],[0,0.25]];outlineConnect=0;gradientColor=none;html=1;whiteSpace=wrap;fontSize=12;fontStyle=0;container=1;pointerEvents=0;collapsible=0;recursiveResize=0;shape=mxgraph.aws4.group;grIcon=mxgraph.aws4.group_security_group;grStroke=0;strokeColor=#00A4A6;fillColor=#E6F6F7;verticalAlign=top;align=left;spacingLeft=30;fontColor=#147EBA;dashed=0;" vertex="1" parent="k_eUefpiebkTwtaE3vUQ-3">
          <mxGeometry x="480" y="760" width="120" height="120" as="geometry" />
        </mxCell>
        <mxCell id="5th_WxcfTJwYVpLpzP10-33" value="node-2" style="outlineConnect=0;dashed=0;verticalLabelPosition=bottom;verticalAlign=top;align=center;html=1;shape=mxgraph.aws3.redis;fillColor=#2E73B8;gradientColor=none;" vertex="1" parent="5th_WxcfTJwYVpLpzP10-32">
          <mxGeometry x="40" y="40" width="40" height="40" as="geometry" />
        </mxCell>
        <mxCell id="5th_WxcfTJwYVpLpzP10-34" value="Private subnet" style="points=[[0,0],[0.25,0],[0.5,0],[0.75,0],[1,0],[1,0.25],[1,0.5],[1,0.75],[1,1],[0.75,1],[0.5,1],[0.25,1],[0,1],[0,0.75],[0,0.5],[0,0.25]];outlineConnect=0;gradientColor=none;html=1;whiteSpace=wrap;fontSize=12;fontStyle=0;container=1;pointerEvents=0;collapsible=0;recursiveResize=0;shape=mxgraph.aws4.group;grIcon=mxgraph.aws4.group_security_group;grStroke=0;strokeColor=#00A4A6;fillColor=#E6F6F7;verticalAlign=top;align=left;spacingLeft=30;fontColor=#147EBA;dashed=0;" vertex="1" parent="k_eUefpiebkTwtaE3vUQ-3">
          <mxGeometry x="480" y="960" width="120" height="120" as="geometry" />
        </mxCell>
        <mxCell id="5th_WxcfTJwYVpLpzP10-35" value="node-5" style="outlineConnect=0;dashed=0;verticalLabelPosition=bottom;verticalAlign=top;align=center;html=1;shape=mxgraph.aws3.redis;fillColor=#2E73B8;gradientColor=none;" vertex="1" parent="5th_WxcfTJwYVpLpzP10-34">
          <mxGeometry x="40" y="40" width="40" height="40" as="geometry" />
        </mxCell>
        <mxCell id="5th_WxcfTJwYVpLpzP10-36" value="Private subnet" style="points=[[0,0],[0.25,0],[0.5,0],[0.75,0],[1,0],[1,0.25],[1,0.5],[1,0.75],[1,1],[0.75,1],[0.5,1],[0.25,1],[0,1],[0,0.75],[0,0.5],[0,0.25]];outlineConnect=0;gradientColor=none;html=1;whiteSpace=wrap;fontSize=12;fontStyle=0;container=1;pointerEvents=0;collapsible=0;recursiveResize=0;shape=mxgraph.aws4.group;grIcon=mxgraph.aws4.group_security_group;grStroke=0;strokeColor=#00A4A6;fillColor=#E6F6F7;verticalAlign=top;align=left;spacingLeft=30;fontColor=#147EBA;dashed=0;" vertex="1" parent="k_eUefpiebkTwtaE3vUQ-3">
          <mxGeometry x="800" y="760" width="120" height="120" as="geometry" />
        </mxCell>
        <mxCell id="5th_WxcfTJwYVpLpzP10-37" value="Private subnet" style="points=[[0,0],[0.25,0],[0.5,0],[0.75,0],[1,0],[1,0.25],[1,0.5],[1,0.75],[1,1],[0.75,1],[0.5,1],[0.25,1],[0,1],[0,0.75],[0,0.5],[0,0.25]];outlineConnect=0;gradientColor=none;html=1;whiteSpace=wrap;fontSize=12;fontStyle=0;container=1;pointerEvents=0;collapsible=0;recursiveResize=0;shape=mxgraph.aws4.group;grIcon=mxgraph.aws4.group_security_group;grStroke=0;strokeColor=#00A4A6;fillColor=#E6F6F7;verticalAlign=top;align=left;spacingLeft=30;fontColor=#147EBA;dashed=0;" vertex="1" parent="k_eUefpiebkTwtaE3vUQ-3">
          <mxGeometry x="800" y="960" width="120" height="120" as="geometry" />
        </mxCell>
        <mxCell id="5th_WxcfTJwYVpLpzP10-38" value="node-6" style="outlineConnect=0;dashed=0;verticalLabelPosition=bottom;verticalAlign=top;align=center;html=1;shape=mxgraph.aws3.redis;fillColor=#2E73B8;gradientColor=none;" vertex="1" parent="5th_WxcfTJwYVpLpzP10-37">
          <mxGeometry x="40" y="40" width="40" height="40" as="geometry" />
        </mxCell>
        <mxCell id="5th_WxcfTJwYVpLpzP10-39" value="node-3" style="outlineConnect=0;dashed=0;verticalLabelPosition=bottom;verticalAlign=top;align=center;html=1;shape=mxgraph.aws3.redis;fillColor=#2E73B8;gradientColor=none;" vertex="1" parent="k_eUefpiebkTwtaE3vUQ-3">
          <mxGeometry x="840" y="800" width="40" height="40" as="geometry" />
        </mxCell>
        <mxCell id="5th_WxcfTJwYVpLpzP10-40" value="multi az replication" style="edgeStyle=orthogonalEdgeStyle;rounded=0;orthogonalLoop=1;jettySize=auto;html=1;startArrow=classic;startFill=1;" edge="1" parent="k_eUefpiebkTwtaE3vUQ-3" source="5th_WxcfTJwYVpLpzP10-31" target="5th_WxcfTJwYVpLpzP10-33">
          <mxGeometry relative="1" as="geometry">
            <mxPoint as="offset" />
          </mxGeometry>
        </mxCell>
        <mxCell id="5th_WxcfTJwYVpLpzP10-41" value="multi az replication" style="edgeStyle=orthogonalEdgeStyle;rounded=0;orthogonalLoop=1;jettySize=auto;html=1;startArrow=classic;startFill=1;entryX=0;entryY=0.5;entryDx=0;entryDy=0;entryPerimeter=0;" edge="1" parent="k_eUefpiebkTwtaE3vUQ-3" source="5th_WxcfTJwYVpLpzP10-33" target="5th_WxcfTJwYVpLpzP10-39">
          <mxGeometry relative="1" as="geometry">
            <mxPoint x="580" y="820" as="sourcePoint" />
            <mxPoint x="550" y="830" as="targetPoint" />
          </mxGeometry>
        </mxCell>
        <mxCell id="5th_WxcfTJwYVpLpzP10-42" value="cluster" style="edgeStyle=orthogonalEdgeStyle;rounded=0;orthogonalLoop=1;jettySize=auto;html=1;exitX=0.5;exitY=1;exitDx=0;exitDy=0;exitPerimeter=0;entryX=0.5;entryY=0;entryDx=0;entryDy=0;entryPerimeter=0;startArrow=classic;startFill=1;" edge="1" parent="k_eUefpiebkTwtaE3vUQ-3" source="5th_WxcfTJwYVpLpzP10-31" target="5th_WxcfTJwYVpLpzP10-29">
          <mxGeometry relative="1" as="geometry" />
        </mxCell>
        <mxCell id="5th_WxcfTJwYVpLpzP10-43" value="cluster" style="edgeStyle=orthogonalEdgeStyle;rounded=0;orthogonalLoop=1;jettySize=auto;html=1;exitX=0.5;exitY=1;exitDx=0;exitDy=0;exitPerimeter=0;startArrow=classic;startFill=1;" edge="1" parent="k_eUefpiebkTwtaE3vUQ-3" source="5th_WxcfTJwYVpLpzP10-33" target="5th_WxcfTJwYVpLpzP10-35">
          <mxGeometry relative="1" as="geometry">
            <mxPoint x="250" y="850" as="sourcePoint" />
            <mxPoint x="250" y="1090" as="targetPoint" />
          </mxGeometry>
        </mxCell>
        <mxCell id="5th_WxcfTJwYVpLpzP10-44" value="cluster" style="edgeStyle=orthogonalEdgeStyle;rounded=0;orthogonalLoop=1;jettySize=auto;html=1;exitX=0.5;exitY=1;exitDx=0;exitDy=0;exitPerimeter=0;startArrow=classic;startFill=1;" edge="1" parent="k_eUefpiebkTwtaE3vUQ-3" source="5th_WxcfTJwYVpLpzP10-39" target="5th_WxcfTJwYVpLpzP10-38">
          <mxGeometry relative="1" as="geometry">
            <mxPoint x="570" y="850" as="sourcePoint" />
            <mxPoint x="570" y="1090" as="targetPoint" />
          </mxGeometry>
        </mxCell>
        <mxCell id="v_Tzamb6HJPYlkYbQboH-1" value="疑似的にやるならRedisに3つのNICを付ける？" style="ellipse;shape=cloud;whiteSpace=wrap;html=1;" vertex="1" parent="k_eUefpiebkTwtaE3vUQ-3">
          <mxGeometry x="120" y="530" width="390" height="140" as="geometry" />
        </mxCell>
      </root>
    </mxGraphModel>
  </diagram>
  <diagram id="9EkRR60gLAAp64EIcNqK" name="redis cluster">
    <mxGraphModel dx="833" dy="481" grid="1" gridSize="10" guides="1" tooltips="1" connect="1" arrows="1" fold="1" page="1" pageScale="1" pageWidth="827" pageHeight="1169" math="0" shadow="0">
      <root>
        <mxCell id="0" />
        <mxCell id="1" value="network" parent="0" />
        <mxCell id="S_tKLvsY4MLtrbuNqmXt-2" value="docker nw" style="points=[[0,0],[0.25,0],[0.5,0],[0.75,0],[1,0],[1,0.25],[1,0.5],[1,0.75],[1,1],[0.75,1],[0.5,1],[0.25,1],[0,1],[0,0.75],[0,0.5],[0,0.25]];outlineConnect=0;gradientColor=none;html=1;whiteSpace=wrap;fontSize=12;fontStyle=0;container=1;pointerEvents=0;collapsible=0;recursiveResize=0;shape=mxgraph.aws4.group;grIcon=mxgraph.aws4.group_aws_cloud_alt;strokeColor=#232F3E;fillColor=none;verticalAlign=top;align=left;spacingLeft=30;fontColor=#232F3E;dashed=0;" vertex="1" parent="1">
          <mxGeometry x="40" y="80" width="600" height="520" as="geometry" />
        </mxCell>
        <mxCell id="S_tKLvsY4MLtrbuNqmXt-5" value="Private subnet" style="points=[[0,0],[0.25,0],[0.5,0],[0.75,0],[1,0],[1,0.25],[1,0.5],[1,0.75],[1,1],[0.75,1],[0.5,1],[0.25,1],[0,1],[0,0.75],[0,0.5],[0,0.25]];outlineConnect=0;gradientColor=none;html=1;whiteSpace=wrap;fontSize=12;fontStyle=0;container=1;pointerEvents=0;collapsible=0;recursiveResize=0;shape=mxgraph.aws4.group;grIcon=mxgraph.aws4.group_security_group;grStroke=0;strokeColor=#00A4A6;fillColor=#E6F6F7;verticalAlign=top;align=left;spacingLeft=30;fontColor=#147EBA;dashed=0;" vertex="1" parent="S_tKLvsY4MLtrbuNqmXt-2">
          <mxGeometry x="40" y="80" width="280" height="270" as="geometry" />
        </mxCell>
        <mxCell id="S_tKLvsY4MLtrbuNqmXt-15" value="node-2" style="outlineConnect=0;dashed=0;verticalLabelPosition=bottom;verticalAlign=top;align=center;html=1;shape=mxgraph.aws3.redis;fillColor=#2E73B8;gradientColor=none;points=[[0,0.5,0,0,0],[0.05,0.05,0,0,0],[0.05,0.95,0,0,0],[0.5,0,0,0,0],[0.5,1,0,0,0],[0.95,0.05,0,0,0],[0.95,0.95,0,0,0],[1,0.5,0,0,0]];" vertex="1" parent="S_tKLvsY4MLtrbuNqmXt-5">
          <mxGeometry x="120" y="40" width="40" height="40" as="geometry" />
        </mxCell>
        <mxCell id="S_tKLvsY4MLtrbuNqmXt-17" value="node-1" style="outlineConnect=0;dashed=0;verticalLabelPosition=bottom;verticalAlign=top;align=center;html=1;shape=mxgraph.aws3.redis;fillColor=#2E73B8;gradientColor=none;points=[[0,0.5,0,0,0],[0.05,0.05,0,0,0],[0.05,0.95,0,0,0],[0.5,0,0,0,0],[0.5,1,0,0,0],[0.95,0.05,0,0,0],[0.95,0.95,0,0,0],[1,0.5,0,0,0]];" vertex="1" parent="S_tKLvsY4MLtrbuNqmXt-5">
          <mxGeometry x="40" y="80" width="40" height="40" as="geometry" />
        </mxCell>
        <mxCell id="S_tKLvsY4MLtrbuNqmXt-18" value="node-3" style="outlineConnect=0;dashed=0;verticalLabelPosition=bottom;verticalAlign=top;align=center;html=1;shape=mxgraph.aws3.redis;fillColor=#2E73B8;gradientColor=none;points=[[0,0.5,0,0,0],[0.05,0.05,0,0,0],[0.05,0.95,0,0,0],[0.5,0,0,0,0],[0.5,1,0,0,0],[0.95,0.05,0,0,0],[0.95,0.95,0,0,0],[1,0.5,0,0,0]];" vertex="1" parent="S_tKLvsY4MLtrbuNqmXt-5">
          <mxGeometry x="200" y="80" width="40" height="40" as="geometry" />
        </mxCell>
        <mxCell id="S_tKLvsY4MLtrbuNqmXt-22" value="node-4" style="outlineConnect=0;dashed=0;verticalLabelPosition=bottom;verticalAlign=top;align=center;html=1;shape=mxgraph.aws3.redis;fillColor=#d5e8d4;points=[[0,0.5,0,0,0],[0.05,0.05,0,0,0],[0.05,0.95,0,0,0],[0.5,0,0,0,0],[0.5,1,0,0,0],[0.95,0.05,0,0,0],[0.95,0.95,0,0,0],[1,0.5,0,0,0]];strokeColor=#82b366;" vertex="1" parent="S_tKLvsY4MLtrbuNqmXt-5">
          <mxGeometry x="40" y="160" width="40" height="40" as="geometry" />
        </mxCell>
        <mxCell id="S_tKLvsY4MLtrbuNqmXt-23" value="node-5" style="outlineConnect=0;dashed=0;verticalLabelPosition=bottom;verticalAlign=top;align=center;html=1;shape=mxgraph.aws3.redis;fillColor=#d5e8d4;points=[[0,0.5,0,0,0],[0.05,0.05,0,0,0],[0.05,0.95,0,0,0],[0.5,0,0,0,0],[0.5,1,0,0,0],[0.95,0.05,0,0,0],[0.95,0.95,0,0,0],[1,0.5,0,0,0]];strokeColor=#82b366;" vertex="1" parent="S_tKLvsY4MLtrbuNqmXt-5">
          <mxGeometry x="120" y="200" width="40" height="40" as="geometry" />
        </mxCell>
        <mxCell id="S_tKLvsY4MLtrbuNqmXt-24" value="node-6" style="outlineConnect=0;dashed=0;verticalLabelPosition=bottom;verticalAlign=top;align=center;html=1;shape=mxgraph.aws3.redis;fillColor=#d5e8d4;points=[[0,0.5,0,0,0],[0.05,0.05,0,0,0],[0.05,0.95,0,0,0],[0.5,0,0,0,0],[0.5,1,0,0,0],[0.95,0.05,0,0,0],[0.95,0.95,0,0,0],[1,0.5,0,0,0]];strokeColor=#82b366;" vertex="1" parent="S_tKLvsY4MLtrbuNqmXt-5">
          <mxGeometry x="200" y="160" width="40" height="40" as="geometry" />
        </mxCell>
        <mxCell id="S_tKLvsY4MLtrbuNqmXt-26" style="rounded=0;orthogonalLoop=1;jettySize=auto;html=1;exitX=0;exitY=0.5;exitDx=0;exitDy=0;exitPerimeter=0;entryX=0.5;entryY=0;entryDx=0;entryDy=0;entryPerimeter=0;endArrow=none;startFill=0;" edge="1" parent="S_tKLvsY4MLtrbuNqmXt-5" source="S_tKLvsY4MLtrbuNqmXt-15" target="S_tKLvsY4MLtrbuNqmXt-17">
          <mxGeometry relative="1" as="geometry" />
        </mxCell>
        <mxCell id="S_tKLvsY4MLtrbuNqmXt-27" style="rounded=0;orthogonalLoop=1;jettySize=auto;html=1;exitX=0.5;exitY=1;exitDx=0;exitDy=0;exitPerimeter=0;entryX=0.5;entryY=0;entryDx=0;entryDy=0;entryPerimeter=0;endArrow=none;startFill=0;" edge="1" parent="S_tKLvsY4MLtrbuNqmXt-5" source="S_tKLvsY4MLtrbuNqmXt-17" target="S_tKLvsY4MLtrbuNqmXt-22">
          <mxGeometry relative="1" as="geometry">
            <mxPoint x="130" y="70" as="sourcePoint" />
            <mxPoint x="90" y="110" as="targetPoint" />
          </mxGeometry>
        </mxCell>
        <mxCell id="S_tKLvsY4MLtrbuNqmXt-28" style="rounded=0;orthogonalLoop=1;jettySize=auto;html=1;exitX=0.5;exitY=1;exitDx=0;exitDy=0;exitPerimeter=0;entryX=0;entryY=0.5;entryDx=0;entryDy=0;entryPerimeter=0;endArrow=none;startFill=0;" edge="1" parent="S_tKLvsY4MLtrbuNqmXt-5" source="S_tKLvsY4MLtrbuNqmXt-22" target="S_tKLvsY4MLtrbuNqmXt-23">
          <mxGeometry relative="1" as="geometry">
            <mxPoint x="70" y="130" as="sourcePoint" />
            <mxPoint x="70" y="170" as="targetPoint" />
          </mxGeometry>
        </mxCell>
        <mxCell id="S_tKLvsY4MLtrbuNqmXt-29" style="rounded=0;orthogonalLoop=1;jettySize=auto;html=1;exitX=1;exitY=0.5;exitDx=0;exitDy=0;exitPerimeter=0;entryX=0.5;entryY=1;entryDx=0;entryDy=0;entryPerimeter=0;endArrow=none;startFill=0;" edge="1" parent="S_tKLvsY4MLtrbuNqmXt-5" source="S_tKLvsY4MLtrbuNqmXt-23" target="S_tKLvsY4MLtrbuNqmXt-24">
          <mxGeometry relative="1" as="geometry">
            <mxPoint x="90" y="190" as="sourcePoint" />
            <mxPoint x="130" y="230" as="targetPoint" />
          </mxGeometry>
        </mxCell>
        <mxCell id="S_tKLvsY4MLtrbuNqmXt-30" style="rounded=0;orthogonalLoop=1;jettySize=auto;html=1;entryX=0.5;entryY=1;entryDx=0;entryDy=0;entryPerimeter=0;endArrow=none;startFill=0;" edge="1" parent="S_tKLvsY4MLtrbuNqmXt-5" source="S_tKLvsY4MLtrbuNqmXt-24" target="S_tKLvsY4MLtrbuNqmXt-18">
          <mxGeometry relative="1" as="geometry">
            <mxPoint x="170" y="230" as="sourcePoint" />
            <mxPoint x="210" y="190" as="targetPoint" />
          </mxGeometry>
        </mxCell>
        <mxCell id="S_tKLvsY4MLtrbuNqmXt-31" style="rounded=0;orthogonalLoop=1;jettySize=auto;html=1;entryX=1;entryY=0.5;entryDx=0;entryDy=0;entryPerimeter=0;endArrow=none;startFill=0;exitX=0.45;exitY=0.017;exitDx=0;exitDy=0;exitPerimeter=0;" edge="1" parent="S_tKLvsY4MLtrbuNqmXt-5" source="S_tKLvsY4MLtrbuNqmXt-18" target="S_tKLvsY4MLtrbuNqmXt-15">
          <mxGeometry relative="1" as="geometry">
            <mxPoint x="230" y="170" as="sourcePoint" />
            <mxPoint x="230" y="130" as="targetPoint" />
          </mxGeometry>
        </mxCell>
        <mxCell id="S_tKLvsY4MLtrbuNqmXt-33" style="rounded=0;orthogonalLoop=1;jettySize=auto;html=1;exitX=0;exitY=0.5;exitDx=0;exitDy=0;exitPerimeter=0;entryX=1;entryY=0.5;entryDx=0;entryDy=0;entryPerimeter=0;endArrow=none;startFill=0;" edge="1" parent="S_tKLvsY4MLtrbuNqmXt-5" source="S_tKLvsY4MLtrbuNqmXt-18" target="S_tKLvsY4MLtrbuNqmXt-17">
          <mxGeometry relative="1" as="geometry">
            <mxPoint x="130" y="70" as="sourcePoint" />
            <mxPoint x="70" y="90" as="targetPoint" />
          </mxGeometry>
        </mxCell>
        <mxCell id="S_tKLvsY4MLtrbuNqmXt-34" style="rounded=0;orthogonalLoop=1;jettySize=auto;html=1;entryX=1;entryY=0.5;entryDx=0;entryDy=0;entryPerimeter=0;endArrow=none;startFill=0;" edge="1" parent="S_tKLvsY4MLtrbuNqmXt-5" source="S_tKLvsY4MLtrbuNqmXt-24" target="S_tKLvsY4MLtrbuNqmXt-22">
          <mxGeometry relative="1" as="geometry">
            <mxPoint x="210" y="110" as="sourcePoint" />
            <mxPoint x="90" y="110" as="targetPoint" />
          </mxGeometry>
        </mxCell>
        <mxCell id="S_tKLvsY4MLtrbuNqmXt-35" style="rounded=0;orthogonalLoop=1;jettySize=auto;html=1;entryX=0.5;entryY=1;entryDx=0;entryDy=0;entryPerimeter=0;endArrow=none;startFill=0;exitX=0.5;exitY=0;exitDx=0;exitDy=0;exitPerimeter=0;" edge="1" parent="S_tKLvsY4MLtrbuNqmXt-5" source="S_tKLvsY4MLtrbuNqmXt-23" target="S_tKLvsY4MLtrbuNqmXt-15">
          <mxGeometry relative="1" as="geometry">
            <mxPoint x="210" y="190" as="sourcePoint" />
            <mxPoint x="90" y="190" as="targetPoint" />
          </mxGeometry>
        </mxCell>
        <mxCell id="S_tKLvsY4MLtrbuNqmXt-36" style="rounded=0;orthogonalLoop=1;jettySize=auto;html=1;entryX=0.05;entryY=0.95;entryDx=0;entryDy=0;entryPerimeter=0;endArrow=none;startFill=0;exitX=0.95;exitY=0.05;exitDx=0;exitDy=0;exitPerimeter=0;" edge="1" parent="S_tKLvsY4MLtrbuNqmXt-5" source="S_tKLvsY4MLtrbuNqmXt-22" target="S_tKLvsY4MLtrbuNqmXt-15">
          <mxGeometry relative="1" as="geometry">
            <mxPoint x="150" y="210" as="sourcePoint" />
            <mxPoint x="150" y="90" as="targetPoint" />
          </mxGeometry>
        </mxCell>
        <mxCell id="S_tKLvsY4MLtrbuNqmXt-37" style="rounded=0;orthogonalLoop=1;jettySize=auto;html=1;endArrow=none;startFill=0;exitX=0.05;exitY=0.05;exitDx=0;exitDy=0;exitPerimeter=0;entryX=0.95;entryY=0.95;entryDx=0;entryDy=0;entryPerimeter=0;" edge="1" parent="S_tKLvsY4MLtrbuNqmXt-5" source="S_tKLvsY4MLtrbuNqmXt-24" target="S_tKLvsY4MLtrbuNqmXt-15">
          <mxGeometry relative="1" as="geometry">
            <mxPoint x="90" y="190" as="sourcePoint" />
            <mxPoint x="140" y="80" as="targetPoint" />
          </mxGeometry>
        </mxCell>
        <mxCell id="S_tKLvsY4MLtrbuNqmXt-38" style="rounded=0;orthogonalLoop=1;jettySize=auto;html=1;entryX=0.95;entryY=0.95;entryDx=0;entryDy=0;entryPerimeter=0;endArrow=none;startFill=0;exitX=0.05;exitY=0.05;exitDx=0;exitDy=0;exitPerimeter=0;" edge="1" parent="S_tKLvsY4MLtrbuNqmXt-5" source="S_tKLvsY4MLtrbuNqmXt-23" target="S_tKLvsY4MLtrbuNqmXt-17">
          <mxGeometry relative="1" as="geometry">
            <mxPoint x="150" y="210" as="sourcePoint" />
            <mxPoint x="150" y="90" as="targetPoint" />
          </mxGeometry>
        </mxCell>
        <mxCell id="S_tKLvsY4MLtrbuNqmXt-39" style="rounded=0;orthogonalLoop=1;jettySize=auto;html=1;entryX=0.05;entryY=0.95;entryDx=0;entryDy=0;entryPerimeter=0;endArrow=none;startFill=0;exitX=0.95;exitY=0.05;exitDx=0;exitDy=0;exitPerimeter=0;" edge="1" parent="S_tKLvsY4MLtrbuNqmXt-5" source="S_tKLvsY4MLtrbuNqmXt-23" target="S_tKLvsY4MLtrbuNqmXt-18">
          <mxGeometry relative="1" as="geometry">
            <mxPoint x="132" y="212" as="sourcePoint" />
            <mxPoint x="88" y="128" as="targetPoint" />
          </mxGeometry>
        </mxCell>
        <mxCell id="S_tKLvsY4MLtrbuNqmXt-41" style="rounded=0;orthogonalLoop=1;jettySize=auto;html=1;entryX=0.05;entryY=0.95;entryDx=0;entryDy=0;entryPerimeter=0;endArrow=none;startFill=0;exitX=0.95;exitY=0.05;exitDx=0;exitDy=0;exitPerimeter=0;" edge="1" parent="S_tKLvsY4MLtrbuNqmXt-5" source="S_tKLvsY4MLtrbuNqmXt-22" target="S_tKLvsY4MLtrbuNqmXt-18">
          <mxGeometry relative="1" as="geometry">
            <mxPoint x="168" y="212" as="sourcePoint" />
            <mxPoint x="212" y="128" as="targetPoint" />
          </mxGeometry>
        </mxCell>
        <mxCell id="S_tKLvsY4MLtrbuNqmXt-42" style="rounded=0;orthogonalLoop=1;jettySize=auto;html=1;entryX=0.95;entryY=0.95;entryDx=0;entryDy=0;entryPerimeter=0;endArrow=none;startFill=0;exitX=0.05;exitY=0.05;exitDx=0;exitDy=0;exitPerimeter=0;" edge="1" parent="S_tKLvsY4MLtrbuNqmXt-5" source="S_tKLvsY4MLtrbuNqmXt-24" target="S_tKLvsY4MLtrbuNqmXt-17">
          <mxGeometry relative="1" as="geometry">
            <mxPoint x="88" y="172" as="sourcePoint" />
            <mxPoint x="212" y="128" as="targetPoint" />
          </mxGeometry>
        </mxCell>
        <mxCell id="S_tKLvsY4MLtrbuNqmXt-4" value="名称未設定レイヤ" parent="0" />
      </root>
    </mxGraphModel>
  </diagram>
</mxfile>
